<?xml version="1.0" standalone="no"?>
<!DOCTYPE svg PUBLIC "-//W3C//DTD SVG 20010904//EN"
 "http://www.w3.org/TR/2001/REC-SVG-20010904/DTD/svg10.dtd">
<svg version="1.0" xmlns="http://www.w3.org/2000/svg"
 width="512.000000pt" height="512.000000pt" viewBox="0 0 512.000000 512.000000"
 preserveAspectRatio="xMidYMid meet">

<g transform="translate(0.000000,512.000000) scale(0.100000,-0.100000)"
fill="#000000" stroke="none">
<path d="M78 5099 c-23 -12 -46 -35 -58 -59 -20 -39 -20 -54 -20 -2480 0
-2427 0 -2441 20 -2480 13 -26 34 -47 60 -60 39 -20 53 -20 2480 -20 2427 0
2441 0 2480 20 45 23 80 80 80 130 0 50 -35 107 -80 130 -38 19 -58 20 -585
20 l-545 0 0 954 0 954 453 447 452 448 5 -139 c4 -107 9 -146 23 -171 20 -38
82 -73 127 -73 50 0 107 35 130 80 19 37 20 58 20 370 0 312 -1 333 -20 370
-13 26 -34 47 -60 60 -37 19 -58 20 -370 20 -312 0 -333 -1 -370 -20 -45 -23
-80 -80 -80 -130 0 -44 33 -102 72 -125 27 -17 57 -21 172 -25 l139 -5 -877
-872 c-483 -480 -882 -873 -887 -873 -5 0 -386 251 -847 559 -461 307 -852
566 -870 575 -41 21 -85 20 -130 -3 -20 -11 -183 -117 -362 -235 l-325 -215
-5 1382 c-6 1552 1 1426 -80 1467 -49 25 -94 25 -142 -1z m832 -3804 l0 -995
-305 0 -305 0 2 796 3 796 300 199 c165 109 301 198 303 199 1 0 2 -448 2
-995z m900 -200 l0 -795 -300 0 -300 0 0 995 0 995 300 -200 300 -200 0 -795z
m1800 5 l0 -800 -300 0 -300 0 0 502 0 503 297 297 c164 164 299 298 300 298
2 0 3 -360 3 -800z m-900 -305 l0 -495 -300 0 -300 0 0 695 0 695 300 -200
300 -200 0 -495z"/>
<path d="M2420 5114 c-322 -40 -591 -171 -815 -398 -199 -201 -313 -415 -372
-696 -24 -118 -24 -382 0 -500 59 -281 174 -496 372 -696 201 -203 421 -322
705 -381 117 -24 380 -24 502 0 270 54 494 174 694 372 202 199 322 421 381
705 24 118 24 382 0 500 -39 185 -110 356 -212 510 -63 95 -258 291 -351 352
-161 107 -335 180 -506 213 -81 16 -328 28 -398 19z m380 -322 c198 -52 365
-146 501 -281 135 -135 226 -297 282 -501 29 -109 29 -371 0 -480 -56 -204
-147 -366 -282 -501 -135 -135 -297 -226 -501 -282 -109 -29 -371 -29 -480 0
-204 56 -366 147 -501 282 -386 387 -411 1000 -57 1421 153 182 404 323 638
359 98 15 311 6 400 -17z"/>
<path d="M2488 4519 c-44 -23 -78 -81 -78 -134 0 -25 -5 -37 -17 -42 -58 -19
-132 -58 -170 -89 -159 -130 -175 -353 -35 -492 63 -64 146 -98 332 -137 152
-32 210 -53 210 -75 0 -20 -47 -51 -99 -67 -71 -20 -143 -13 -211 23 -88 46
-160 34 -213 -38 -28 -37 -32 -105 -10 -148 21 -40 93 -92 164 -117 45 -16 49
-20 49 -51 0 -78 73 -152 150 -152 78 0 150 74 150 155 0 25 5 37 18 42 57 19
131 58 169 89 159 130 175 353 35 492 -63 64 -146 98 -332 137 -152 32 -210
53 -210 75 0 20 47 51 99 67 67 19 148 13 196 -16 53 -31 100 -41 143 -29 104
28 145 156 76 237 -24 29 -153 101 -180 101 -9 0 -14 12 -14 35 0 54 -34 111
-80 135 -49 25 -94 25 -142 -1z"/>
</g>
</svg>
