<?xml version="1.0" standalone="no"?>
<!DOCTYPE svg PUBLIC "-//W3C//DTD SVG 20010904//EN"
 "http://www.w3.org/TR/2001/REC-SVG-20010904/DTD/svg10.dtd">
<svg version="1.0" xmlns="http://www.w3.org/2000/svg"
 width="512.000000pt" height="512.000000pt" viewBox="0 0 512.000000 512.000000"
 preserveAspectRatio="xMidYMid meet">

<g transform="translate(0.000000,512.000000) scale(0.100000,-0.100000)"
fill="#000000" stroke="none">
<path d="M1789 4817 c-39 -26 -69 -79 -69 -122 0 -16 16 -64 35 -105 l34 -75
-137 -6 c-201 -10 -267 -32 -509 -170 l-123 -71 -29 31 c-15 16 -39 32 -52 36
-13 3 -229 4 -479 3 l-455 -3 -3 -752 -2 -753 304 0 c264 0 307 2 320 16 12
11 16 36 16 90 l0 74 138 1 c75 1 148 4 162 8 22 6 29 1 66 -54 49 -72 145
-163 213 -201 l48 -28 6 -110 c10 -195 69 -345 187 -470 140 -148 323 -234
605 -283 77 -13 159 -17 355 -17 221 -1 272 2 380 22 513 92 770 367 770 823
0 391 -186 830 -477 1130 l-103 106 15 29 c10 21 15 60 15 136 0 117 -6 141
-43 178 l-25 25 82 175 c91 196 99 240 57 299 -45 63 -21 61 -674 61 l-594 0
-34 -23z m320 -154 c27 -183 32 -203 57 -220 22 -14 26 -14 49 1 30 20 32 49
10 181 -8 50 -15 96 -15 103 0 9 49 12 210 12 l210 0 0 -22 c-1 -13 -9 -77
-19 -143 -17 -105 -18 -123 -5 -142 17 -27 55 -30 78 -8 8 8 18 37 22 63 4 26
14 92 23 147 l16 100 113 3 c121 3 152 -5 152 -41 0 -12 -38 -101 -84 -197
l-82 -175 -85 -5 c-93 -6 -118 -16 -148 -59 l-21 -28 -232 84 c-128 46 -277
100 -332 120 l-98 36 -49 105 c-27 57 -49 112 -49 123 0 31 30 38 151 39 l117
0 11 -77z m-258 -277 c69 -19 707 -249 748 -271 64 -33 89 -123 52 -183 -24
-37 -76 -72 -108 -72 -12 0 -170 34 -350 75 -348 80 -367 82 -377 33 -3 -13
-7 -66 -10 -118 -9 -178 -78 -311 -213 -407 -74 -53 -142 -78 -257 -97 -47 -7
-92 -19 -101 -26 -21 -17 -19 -53 5 -75 16 -14 29 -16 76 -10 53 6 56 5 50
-12 -24 -60 -66 -220 -76 -288 -7 -44 -14 -82 -16 -83 -1 -2 -27 15 -58 38
-59 45 -115 113 -165 201 l-31 56 0 499 0 500 153 86 c222 125 274 148 385
168 65 12 225 4 293 -14z m-957 -152 c14 -5 16 -46 16 -355 l0 -349 -135 0
-135 0 0 350 0 349 93 4 c50 1 104 4 119 5 14 1 33 -1 42 -4z m-364 -654 l0
-650 -220 0 -220 0 0 650 0 650 220 0 220 0 0 -650z m2378 531 c2 -60 -1 -98
-9 -107 -7 -9 -31 -14 -65 -14 -56 0 -55 -1 -69 68 -4 17 -22 55 -41 82 -19
28 -32 55 -29 61 4 6 48 9 108 7 l102 -3 3 -94z m-712 -287 c177 -42 301 -67
339 -67 75 0 127 25 183 88 39 44 40 45 102 45 l62 0 117 -117 c287 -289 461
-690 463 -1068 1 -152 -15 -234 -67 -340 -147 -296 -534 -436 -1120 -404 -551
30 -846 237 -896 631 -21 162 16 408 91 603 l31 80 67 32 c196 93 342 315 342
522 0 34 2 61 4 61 2 0 129 -30 282 -66z m-1286 -554 l0 -150 -135 0 -135 0 0
150 0 150 135 0 135 0 0 -150z"/>
<path d="M2392 3218 c-7 -7 -12 -35 -12 -64 0 -52 -1 -52 -43 -73 -26 -13 -53
-37 -70 -63 -25 -38 -27 -50 -27 -136 l0 -94 39 -39 39 -39 89 0 c56 0 93 -4
101 -12 20 -20 15 -112 -9 -142 -17 -22 -28 -26 -69 -26 -41 0 -52 4 -69 26
-12 15 -21 37 -21 51 0 32 -40 51 -75 35 -65 -30 -4 -177 88 -211 25 -10 27
-15 27 -66 0 -49 3 -57 25 -67 19 -8 31 -8 50 0 22 10 25 18 25 67 0 51 2 56
28 66 37 14 82 58 98 96 8 19 14 68 14 119 l0 86 -39 39 -39 39 -89 0 c-56 0
-93 4 -101 12 -7 7 -12 36 -12 64 0 72 30 109 90 109 34 0 47 -6 66 -28 13
-16 24 -39 24 -53 0 -33 40 -52 75 -36 21 10 25 18 25 55 0 58 -41 121 -97
148 -42 21 -43 21 -43 73 0 58 -12 76 -50 76 -14 0 -31 -5 -38 -12z"/>
<path d="M3591 1819 c-56 -10 -282 -93 -774 -284 -228 -89 -296 -120 -324
-146 -36 -36 -73 -97 -73 -124 0 -8 -4 -15 -9 -15 -5 0 -166 104 -358 232
-191 127 -364 237 -383 244 -80 29 -176 12 -241 -45 -99 -84 -117 -228 -42
-329 14 -19 244 -231 510 -472 526 -474 565 -504 734 -561 121 -41 289 -51
417 -25 45 9 259 82 476 161 359 132 401 145 460 145 l66 0 0 -126 0 -126 34
-34 34 -34 260 0 260 0 30 25 c17 14 33 39 37 55 l6 30 202 2 202 3 0 625 0
625 -202 3 -203 2 -15 30 c-31 59 -35 60 -316 60 -241 0 -258 -1 -282 -20
l-25 -20 -94 48 c-133 68 -266 93 -387 71z m244 -124 c28 -10 87 -38 133 -63
l82 -46 0 -438 0 -438 -64 0 c-81 0 -127 -14 -521 -162 -176 -67 -350 -129
-387 -139 -196 -52 -395 -24 -563 80 -85 53 -1028 899 -1051 943 -53 103 47
228 158 197 18 -5 207 -125 419 -266 295 -197 394 -269 420 -302 20 -26 55
-56 84 -70 90 -47 126 -41 575 98 217 67 405 129 418 137 12 8 22 24 22 36 0
24 -27 58 -46 58 -7 0 -196 -57 -421 -126 -444 -137 -467 -141 -520 -93 -72
68 -68 173 9 223 28 18 919 361 991 381 65 19 193 14 262 -10z m765 -385 l0
-330 -225 0 -225 0 0 323 c0 178 3 327 7 330 3 4 105 7 225 7 l218 0 0 -330z
m430 63 c0 -93 3 -327 7 -520 l6 -353 -166 0 -167 0 0 520 0 520 160 0 160 0
0 -167z m-430 -748 l0 -245 -219 0 c-200 0 -219 1 -222 18 -2 9 -3 119 -1 245
l3 227 220 0 219 0 0 -245z"/>
</g>
</svg>
