<?xml version="1.0" standalone="no"?>
<!DOCTYPE svg PUBLIC "-//W3C//DTD SVG 20010904//EN"
 "http://www.w3.org/TR/2001/REC-SVG-20010904/DTD/svg10.dtd">
<svg version="1.0" xmlns="http://www.w3.org/2000/svg"
 width="512.000000pt" height="512.000000pt" viewBox="0 0 512.000000 512.000000"
 preserveAspectRatio="xMidYMid meet">

<g transform="translate(0.000000,512.000000) scale(0.100000,-0.100000)"
fill="#000000" stroke="none">
<path d="M3365 4993 c-108 -14 -268 -89 -377 -176 l-68 -54 -82 29 c-117 41
-206 58 -306 58 -161 0 -303 -52 -398 -144 -86 -83 -92 -73 174 -339 202 -203
225 -229 208 -239 -43 -25 -97 -83 -121 -131 -49 -103 -42 -205 21 -298 l34
-49 -73 -93 c-253 -317 -436 -667 -531 -1012 -47 -169 -51 -204 -51 -397 l0
-186 -60 -12 c-33 -7 -105 -27 -160 -46 -55 -19 -107 -37 -116 -40 -12 -4 -18
3 -22 24 -8 41 -44 72 -81 72 -49 0 -1128 -132 -1153 -141 -12 -4 -29 -21 -37
-37 -14 -26 -8 -88 70 -743 46 -393 88 -724 93 -736 6 -12 21 -29 33 -37 22
-14 73 -10 588 49 311 36 573 65 583 65 10 0 29 11 42 25 22 21 25 33 25 90 0
52 3 65 16 65 30 0 302 -72 439 -117 77 -25 219 -75 315 -110 479 -178 632
-216 865 -216 201 0 373 40 610 143 61 27 215 91 344 144 387 160 558 258 643
371 74 97 86 216 34 328 -43 90 -127 149 -230 163 -25 4 -46 9 -46 11 0 3 20
28 44 56 147 174 254 399 307 647 19 87 23 136 23 285 0 284 -37 422 -205 760
-91 184 -223 404 -331 553 l-60 83 31 63 c41 80 49 153 27 230 -14 46 -29 69
-74 114 l-57 57 213 216 c165 168 212 222 212 242 0 41 -36 113 -81 161 -119
130 -341 150 -631 57 l-91 -30 -76 65 c-149 127 -308 179 -476 157z m211 -162
c70 -25 165 -93 231 -166 60 -67 63 -67 203 -17 239 86 465 80 527 -15 16 -25
16 -25 -203 -244 l-219 -219 -700 0 -700 0 -225 225 c-253 254 -243 233 -131
277 77 29 225 36 323 14 40 -9 109 -32 153 -51 44 -19 90 -35 103 -35 13 0 43
18 70 44 152 140 288 204 435 205 52 1 95 -5 133 -18z m641 -837 c70 -57 81
-149 26 -215 -52 -61 -22 -59 -846 -59 l-753 0 -44 23 c-56 28 -84 74 -84 139
0 60 24 95 85 126 l44 22 767 -2 766 -3 39 -31z m107 -528 c116 -166 206 -317
291 -491 153 -309 197 -470 198 -710 1 -354 -131 -674 -377 -913 -79 -77 -83
-79 -141 -86 -110 -12 -351 -82 -537 -154 -25 -10 -28 -9 -48 34 -50 103 -219
202 -480 280 -85 25 -189 60 -230 76 -151 62 -420 208 -663 361 -103 65 -180
93 -299 109 l-88 12 -7 36 c-4 19 -7 98 -7 175 1 118 5 156 28 245 92 356 267
698 522 1021 l78 99 848 0 847 0 65 -94z m-2241 -1661 c75 -19 129 -48 310
-161 260 -163 468 -259 792 -365 259 -86 395 -166 395 -233 0 -18 -14 -33 -56
-61 -113 -75 -253 -102 -374 -71 -66 17 -101 32 -270 124 -91 49 -291 123
-372 137 -33 6 -41 3 -69 -24 -25 -26 -30 -37 -24 -59 10 -43 35 -60 115 -81
111 -28 230 -76 299 -121 153 -99 274 -140 413 -140 48 0 111 5 140 11 71 15
182 67 243 114 57 45 212 109 400 166 186 56 330 83 455 83 94 1 111 -2 154
-24 56 -29 86 -75 86 -133 0 -125 -121 -217 -496 -376 -120 -51 -286 -122
-369 -158 -265 -116 -363 -146 -534 -163 -203 -21 -397 17 -748 146 -365 134
-603 212 -803 263 l-195 50 -62 483 c-34 266 -60 484 -58 486 2 2 53 21 114
43 210 74 391 96 514 64z m-712 -663 c52 -433 69 -606 61 -611 -9 -5 -845
-106 -946 -114 -19 -2 -24 35 -96 628 -50 413 -73 631 -66 634 6 2 225 30 486
60 l475 57 7 -26 c4 -14 40 -297 79 -628z"/>
<path d="M3325 3148 c-2 -7 -6 -31 -7 -53 -3 -36 -6 -40 -33 -43 -240 -21
-408 -206 -392 -432 6 -92 35 -158 93 -217 50 -50 163 -106 262 -130 l72 -17
0 -192 0 -192 -42 10 c-66 14 -155 57 -226 109 l-65 48 -68 -82 c-38 -45 -67
-86 -66 -92 7 -20 105 -87 192 -130 83 -42 152 -64 248 -80 l37 -6 0 -69 0
-70 65 0 65 0 0 68 0 68 85 16 c47 9 109 28 138 42 68 33 149 111 184 178 26
50 28 61 28 173 0 107 -3 125 -25 170 -13 27 -41 66 -62 87 -54 54 -182 114
-315 148 l-43 11 0 184 c0 173 1 185 18 185 33 0 145 -41 209 -75 l62 -34 61
86 c34 47 59 91 56 99 -3 7 -48 34 -100 59 -86 42 -125 53 -283 81 -20 4 -23
10 -23 54 l0 50 -60 0 c-40 0 -62 -4 -65 -12z m5 -479 l0 -170 -22 7 c-52 15
-129 59 -143 80 -55 85 -10 203 91 239 78 28 74 35 74 -156z m225 -489 c67
-32 99 -69 111 -128 18 -88 -77 -182 -183 -182 -23 0 -23 0 -23 170 0 196 -5
188 95 140z"/>
</g>
</svg>
