<?xml version="1.0" standalone="no"?>
<!DOCTYPE svg PUBLIC "-//W3C//DTD SVG 20010904//EN"
 "http://www.w3.org/TR/2001/REC-SVG-20010904/DTD/svg10.dtd">
<svg version="1.0" xmlns="http://www.w3.org/2000/svg"
 width="512.000000pt" height="512.000000pt" viewBox="0 0 512.000000 512.000000"
 preserveAspectRatio="xMidYMid meet">

<g transform="translate(0.000000,512.000000) scale(0.100000,-0.100000)"
fill="#000000" stroke="none">
<path d="M2910 4601 c-142 -31 -342 -127 -389 -187 -65 -83 -16 -213 87 -229
97 -16 193 -40 250 -63 118 -46 252 -148 327 -246 25 -33 27 -40 15 -48 -8 -5
-50 -30 -93 -55 -67 -38 -82 -51 -98 -89 -25 -56 -17 -105 25 -151 30 -33 52
-41 391 -139 198 -57 378 -104 400 -104 45 0 96 27 118 62 8 13 61 185 117
382 111 391 116 422 69 473 -27 29 -77 53 -110 53 -12 0 -48 -12 -81 -27 -50
-22 -61 -24 -68 -12 -5 8 -31 40 -57 73 -106 129 -296 250 -468 296 -115 32
-319 37 -435 11z m310 -121 c205 -33 385 -138 515 -300 31 -38 67 -77 81 -86
36 -24 94 -22 153 5 28 14 54 22 57 18 7 -7 -183 -678 -196 -691 -11 -11 -700
185 -700 199 0 6 38 31 83 56 98 55 127 91 127 158 0 58 -19 88 -111 186 -132
139 -311 237 -494 270 -127 24 -125 23 -95 47 32 26 141 81 205 103 118 40
256 53 375 35z"/>
<path d="M1100 4555 c-419 -80 -774 -370 -931 -760 -17 -43 -43 -121 -57 -174
-23 -86 -25 -115 -26 -286 -1 -166 2 -202 22 -280 64 -254 175 -449 356 -623
598 -574 1572 -416 1960 319 324 615 80 1375 -543 1689 -90 46 -158 71 -271
102 -99 26 -397 34 -510 13z m480 -143 c380 -101 665 -359 793 -719 78 -217
79 -496 3 -719 -92 -270 -288 -500 -536 -628 -177 -91 -321 -126 -522 -126
-595 0 -1079 464 -1105 1060 -14 326 101 614 334 841 168 163 355 261 580 304
111 21 352 14 453 -13z"/>
<path d="M1167 4260 c-120 -21 -273 -82 -377 -153 -66 -45 -186 -163 -236
-234 -57 -78 -119 -210 -146 -310 -31 -113 -31 -353 0 -468 90 -330 338 -582
669 -677 106 -31 369 -33 478 -5 95 25 256 104 332 161 265 201 406 522 372
849 -42 409 -344 746 -744 828 -95 20 -258 24 -348 9z m373 -150 c227 -65 431
-241 526 -455 61 -140 81 -341 49 -495 -58 -278 -265 -506 -545 -602 -90 -31
-103 -32 -240 -33 -171 0 -230 13 -365 79 -211 104 -361 288 -427 521 -30 110
-30 295 0 407 83 304 320 527 632 594 91 19 273 11 370 -16z"/>
<path d="M1280 4000 c-14 -14 -20 -33 -20 -68 0 -49 0 -49 -42 -61 -95 -28
-180 -106 -219 -201 -24 -58 -17 -158 14 -223 53 -108 156 -172 301 -187 92
-9 127 -23 168 -67 81 -85 57 -208 -52 -267 -45 -25 -60 -28 -119 -24 -109 6
-180 65 -195 161 -8 51 -31 77 -66 77 -70 0 -86 -76 -38 -181 40 -88 127 -160
221 -183 24 -6 27 -11 27 -51 0 -52 25 -85 65 -85 39 0 65 33 65 84 l0 43 62
23 c81 29 167 112 191 184 27 80 22 162 -13 234 -54 107 -151 168 -289 183
-91 9 -127 21 -164 57 -77 73 -79 181 -5 248 112 102 324 55 352 -78 3 -16 8
-39 11 -52 11 -55 75 -75 110 -36 14 16 17 31 13 78 -7 72 -33 124 -90 179
-40 39 -136 93 -165 93 -9 0 -13 16 -13 48 0 38 -5 53 -23 70 -29 27 -61 28
-87 2z"/>
<path d="M3665 3039 c-546 -61 -985 -466 -1092 -1006 -23 -119 -23 -347 0
-466 95 -480 445 -848 926 -974 128 -34 371 -43 506 -20 491 86 874 444 1002
936 33 130 42 355 19 487 -47 272 -160 491 -350 680 -147 147 -299 242 -486
306 -154 52 -366 75 -525 57z m326 -144 c340 -59 642 -285 798 -595 41 -81 82
-199 103 -295 16 -78 16 -332 0 -410 -51 -237 -153 -425 -319 -586 -104 -101
-182 -156 -309 -216 -296 -140 -669 -137 -959 9 -147 75 -300 201 -396 327
-65 86 -153 264 -183 373 -124 436 38 911 403 1189 123 93 331 182 490 209 79
13 284 11 372 -5z"/>
<path d="M3610 2725 c-443 -95 -752 -472 -754 -920 -2 -432 275 -795 700 -917
68 -20 101 -23 244 -22 150 0 173 3 253 27 161 50 277 117 396 231 130 125
215 270 262 446 32 119 32 348 1 463 -92 336 -348 592 -682 682 -88 23 -331
30 -420 10z m395 -140 c93 -25 233 -98 307 -159 270 -224 367 -600 238 -923
-212 -528 -889 -682 -1301 -295 -173 162 -259 358 -259 588 0 122 13 195 51
296 96 249 323 444 585 502 87 20 292 15 379 -9z"/>
<path d="M3703 2332 c-104 -37 -199 -126 -254 -237 l-31 -63 -69 -4 c-79 -4
-102 -20 -102 -68 0 -44 23 -63 85 -68 l53 -4 0 -89 0 -89 -46 0 c-57 0 -91
-24 -91 -63 0 -49 27 -67 101 -67 l66 -1 35 -71 c46 -96 127 -178 217 -221 61
-29 77 -32 158 -32 82 0 97 3 156 32 84 41 179 138 179 181 0 35 -27 62 -64
62 -19 0 -42 -16 -84 -58 -136 -139 -310 -116 -426 58 -30 45 -23 50 69 50 72
0 88 3 105 20 27 27 25 56 -5 85 -22 23 -31 25 -129 25 l-105 0 -7 45 c-3 25
-3 65 0 90 l7 45 105 0 c98 0 107 2 129 25 29 28 31 51 9 83 -14 20 -23 22
-105 22 -96 0 -103 5 -73 50 104 155 265 193 390 94 61 -49 80 -57 106 -43 79
41 37 122 -97 192 -78 40 -200 48 -282 19z"/>
<path d="M1209 1828 c-74 -19 -80 -33 -194 -431 -58 -202 -105 -381 -105 -399
0 -39 29 -90 63 -113 46 -30 89 -30 156 0 l62 28 16 -24 c33 -48 160 -172 219
-215 300 -215 700 -231 1026 -39 89 52 194 145 200 177 8 42 -11 88 -45 108
-25 15 -50 20 -112 20 -148 0 -314 55 -440 144 -59 43 -195 179 -195 197 0 4
35 27 78 50 91 50 129 88 138 135 8 46 -19 118 -54 143 -22 15 -660 205 -752
223 -14 3 -41 1 -61 -4z m391 -226 c185 -53 337 -101 338 -107 2 -5 -36 -32
-83 -59 -99 -55 -125 -88 -125 -156 0 -56 19 -88 111 -185 87 -91 208 -174
321 -220 84 -34 211 -65 270 -65 l33 -1 -34 -29 c-19 -16 -66 -45 -106 -64
-346 -169 -738 -80 -989 224 -36 44 -76 85 -88 91 -39 21 -101 15 -151 -14
-25 -15 -48 -23 -51 -18 -3 4 37 158 90 342 112 395 100 359 116 359 7 -1 164
-44 348 -98z"/>
</g>
</svg>
