<?xml version="1.0" standalone="no"?>
<!DOCTYPE svg PUBLIC "-//W3C//DTD SVG 20010904//EN"
 "http://www.w3.org/TR/2001/REC-SVG-20010904/DTD/svg10.dtd">
<svg version="1.0" xmlns="http://www.w3.org/2000/svg"
 width="1280.000000pt" height="950.000000pt" viewBox="0 0 1280.000000 950.000000"
 preserveAspectRatio="xMidYMid meet">
<metadata>
Created by potrace 1.15, written by Peter Selinger 2001-2017
</metadata>
<g transform="translate(0.000000,950.000000) scale(0.100000,-0.100000)"
fill="#000000" stroke="none">
<path d="M6280 8824 c-441 -42 -853 -323 -1047 -716 -102 -207 -137 -356 -138
-590 0 -91 3 -170 7 -173 4 -4 55 -1 114 6 l106 14 -1 135 c-2 146 13 250 53
366 90 267 290 495 546 624 290 147 664 147 955 2 160 -80 310 -206 408 -344
61 -85 130 -232 162 -342 54 -189 50 -437 -10 -605 -8 -24 -13 -46 -11 -48 5
-5 195 -73 205 -73 10 0 35 84 58 190 27 127 24 392 -5 519 -24 105 -71 238
-113 322 -83 166 -252 364 -401 470 -145 102 -347 189 -519 223 -78 16 -290
27 -369 20z"/>
<path d="M2675 7714 c-11 -3 -51 -12 -90 -21 -95 -22 -112 -35 -131 -100 -22
-74 -13 -109 56 -229 75 -130 143 -265 179 -357 72 -180 108 -384 89 -507 -12
-78 -32 -102 -183 -220 -277 -215 -421 -376 -573 -640 -73 -128 -179 -355
-197 -425 -11 -43 -16 -50 -36 -48 -13 1 -166 5 -339 9 -360 8 -452 0 -565
-47 -126 -53 -223 -162 -265 -298 -47 -148 -55 -256 -55 -721 0 -474 2 -496
61 -617 26 -54 113 -131 181 -159 76 -32 216 -46 510 -49 161 -2 297 -6 303
-10 5 -3 10 -23 10 -45 0 -49 61 -293 106 -422 110 -314 238 -522 464 -749 74
-74 173 -165 220 -201 169 -130 378 -258 422 -258 11 0 18 -3 16 -7 -2 -5 -25
-52 -51 -106 -26 -54 -61 -135 -78 -180 -26 -70 -29 -91 -24 -140 8 -74 41
-146 87 -186 127 -111 1194 -437 1575 -481 76 -8 87 -7 135 14 126 56 196 161
259 386 17 63 34 122 36 130 3 11 6 11 12 2 22 -37 974 -92 1556 -91 334 1
447 6 485 23 12 5 19 -10 33 -71 40 -170 129 -292 260 -357 81 -40 119 -44
253 -26 252 33 1122 253 1245 316 146 74 171 117 170 289 -1 140 -10 195 -56
325 -50 144 -50 152 1 161 155 27 491 257 744 508 389 388 619 886 685 1486
22 196 22 586 0 730 -20 132 -55 291 -89 399 -29 92 -35 82 79 143 98 52 332
163 345 163 6 0 27 -10 48 -23 180 -112 486 -129 764 -41 150 48 273 120 367
217 l44 45 -19 24 c-11 13 -46 54 -78 91 l-60 67 -60 -62 c-90 -93 -230 -159
-395 -188 -61 -11 -264 -15 -293 -6 -52 16 -52 15 13 58 179 115 249 220 249
377 0 139 -56 267 -165 376 -108 108 -212 155 -347 155 -166 0 -317 -113 -374
-280 -25 -75 -25 -218 1 -325 11 -45 44 -129 75 -192 l56 -112 -90 -41 c-50
-23 -129 -63 -176 -89 -47 -25 -88 -47 -91 -49 -4 -2 -34 49 -67 112 -148 281
-312 497 -564 742 -299 289 -653 526 -1188 792 -528 264 -1224 429 -2055 488
-551 39 -1347 10 -1695 -61 -36 -7 -91 -16 -122 -20 -67 -8 -71 -6 -283 160
-347 272 -561 379 -895 450 -73 16 -402 30 -445 19z m180 -229 c165 -8 268
-26 414 -74 218 -72 337 -143 661 -396 58 -45 134 -99 170 -119 89 -52 156
-57 355 -23 702 120 1738 99 2516 -53 447 -87 819 -209 1139 -373 366 -188
620 -343 835 -510 158 -123 402 -364 516 -509 245 -312 414 -683 480 -1058 41
-229 36 -634 -12 -915 -105 -625 -415 -1103 -959 -1482 -63 -44 -177 -117
-252 -162 -88 -52 -147 -95 -166 -119 -78 -101 -87 -143 -51 -234 49 -122 69
-204 75 -308 l6 -105 -104 -32 c-346 -107 -974 -257 -1159 -277 -51 -5 -60 -3
-97 24 -54 39 -83 87 -111 185 -36 127 -78 203 -126 228 -39 20 -46 20 -230 9
-400 -25 -1138 -2 -1740 54 -194 18 -261 14 -337 -19 -65 -30 -89 -62 -113
-152 -43 -167 -91 -290 -123 -319 -24 -21 -39 -20 -215 15 -126 24 -259 58
-477 120 -342 98 -783 252 -809 283 -12 15 2 55 92 256 78 177 78 180 18 261
-38 52 -71 81 -148 131 -54 36 -138 91 -186 122 -169 111 -345 266 -456 401
-182 222 -288 449 -376 805 -20 80 -45 178 -57 218 l-21 73 -61 31 c-34 17
-74 35 -91 40 -16 5 -172 13 -345 18 -343 9 -412 18 -457 59 -51 47 -58 108
-58 521 1 697 40 807 295 841 45 6 201 8 395 4 288 -5 328 -4 394 12 71 17 76
20 101 63 14 25 46 90 70 145 89 199 182 377 252 483 87 130 247 297 396 413
59 46 146 122 193 170 l87 86 21 90 c12 50 21 124 21 166 0 109 -33 287 -80
429 -46 139 -163 384 -216 453 -26 35 -30 45 -17 42 10 -3 77 -8 148 -12z
m7831 -1628 c40 -20 107 -94 135 -149 33 -62 34 -171 1 -213 -30 -38 -108 -96
-189 -141 -62 -35 -65 -36 -79 -18 -29 38 -103 201 -113 252 -33 158 14 271
120 290 47 9 77 4 125 -21z"/>
<path d="M3111 5395 c-69 -20 -108 -44 -161 -101 -65 -70 -85 -123 -85 -224 0
-71 4 -94 26 -141 34 -73 96 -134 168 -167 83 -39 192 -38 278 2 179 82 249
296 155 469 -71 131 -237 202 -381 162z"/>
</g>
</svg>
